<?xml version="1.0" standalone="no"?>
<!DOCTYPE svg PUBLIC "-//W3C//DTD SVG 20010904//EN"
 "http://www.w3.org/TR/2001/REC-SVG-20010904/DTD/svg10.dtd">
<svg version="1.0" xmlns="http://www.w3.org/2000/svg"
 width="700.000000pt" height="700.000000pt" viewBox="0 0 700.000000 700.000000"
 preserveAspectRatio="xMidYMid meet">
<metadata>
Created by potrace 1.14, written by Peter Selinger 2001-2017
</metadata>
<g transform="translate(0.000000,700.000000) scale(0.100000,-0.100000)"
fill="#000000" stroke="none">
<path d="M330 6986 c-140 -39 -243 -132 -305 -276 -20 -44 -20 -95 -22 -3180
-2 -2578 0 -3145 11 -3190 39 -162 158 -283 321 -326 67 -18 6232 -21 6317 -3
120 26 229 105 288 211 64 116 60 -134 60 3270 0 2269 -3 3121 -11 3160 -34
161 -159 291 -322 334 -73 19 -6267 19 -6337 0z"/>
</g>
</svg>
